<mxfile host="app.diagrams.net" modified="2021-10-28T11:02:35.760Z" agent="5.0 (Windows NT 10.0; Win64; x64) AppleWebKit/537.36 (KHTML, like Gecko) Chrome/95.0.4638.54 Safari/537.36" etag="DFwPKq8apGYBW4LnVn_G" version="15.2.7" type="github">
  <diagram id="9DjfHMaj7yV3WUGjkPvd" name="Page-1">
    <mxGraphModel dx="2012" dy="662" grid="1" gridSize="10" guides="1" tooltips="1" connect="1" arrows="1" fold="1" page="1" pageScale="1" pageWidth="827" pageHeight="1169" math="0" shadow="0">
      <root>
        <mxCell id="0" />
        <mxCell id="1" parent="0" />
        <mxCell id="Gl1G2USBsKFAg4OaESX5-1" value="/" style="ellipse;whiteSpace=wrap;html=1;aspect=fixed;" vertex="1" parent="1">
          <mxGeometry x="580" y="140" width="34" height="34" as="geometry" />
        </mxCell>
        <mxCell id="Gl1G2USBsKFAg4OaESX5-3" value="/" style="ellipse;whiteSpace=wrap;html=1;aspect=fixed;" vertex="1" parent="1">
          <mxGeometry x="150" y="140" width="34" height="34" as="geometry" />
        </mxCell>
        <mxCell id="Gl1G2USBsKFAg4OaESX5-4" value="+" style="ellipse;whiteSpace=wrap;html=1;aspect=fixed;" vertex="1" parent="1">
          <mxGeometry x="360" y="70" width="34" height="34" as="geometry" />
        </mxCell>
        <mxCell id="Gl1G2USBsKFAg4OaESX5-5" value="*" style="ellipse;whiteSpace=wrap;html=1;aspect=fixed;" vertex="1" parent="1">
          <mxGeometry x="4" y="230" width="34" height="34" as="geometry" />
        </mxCell>
        <mxCell id="Gl1G2USBsKFAg4OaESX5-6" value="-" style="ellipse;whiteSpace=wrap;html=1;aspect=fixed;" vertex="1" parent="1">
          <mxGeometry x="240" y="230" width="34" height="34" as="geometry" />
        </mxCell>
        <mxCell id="Gl1G2USBsKFAg4OaESX5-7" value="+" style="ellipse;whiteSpace=wrap;html=1;aspect=fixed;" vertex="1" parent="1">
          <mxGeometry x="480" y="230" width="34" height="34" as="geometry" />
        </mxCell>
        <mxCell id="Gl1G2USBsKFAg4OaESX5-8" value="-" style="ellipse;whiteSpace=wrap;html=1;aspect=fixed;" vertex="1" parent="1">
          <mxGeometry x="690" y="230" width="34" height="34" as="geometry" />
        </mxCell>
        <mxCell id="Gl1G2USBsKFAg4OaESX5-9" value="+" style="ellipse;whiteSpace=wrap;html=1;aspect=fixed;" vertex="1" parent="1">
          <mxGeometry x="-56" y="280" width="34" height="34" as="geometry" />
        </mxCell>
        <mxCell id="Gl1G2USBsKFAg4OaESX5-10" value="+" style="ellipse;whiteSpace=wrap;html=1;aspect=fixed;" vertex="1" parent="1">
          <mxGeometry x="110" y="280" width="34" height="34" as="geometry" />
        </mxCell>
        <mxCell id="Gl1G2USBsKFAg4OaESX5-11" value="*" style="ellipse;whiteSpace=wrap;html=1;aspect=fixed;" vertex="1" parent="1">
          <mxGeometry x="190" y="280" width="34" height="34" as="geometry" />
        </mxCell>
        <mxCell id="Gl1G2USBsKFAg4OaESX5-12" value="D" style="ellipse;whiteSpace=wrap;html=1;aspect=fixed;" vertex="1" parent="1">
          <mxGeometry x="300" y="280" width="34" height="34" as="geometry" />
        </mxCell>
        <mxCell id="Gl1G2USBsKFAg4OaESX5-13" value="&lt;span style=&quot;color: rgba(0 , 0 , 0 , 0) ; font-family: monospace ; font-size: 0px&quot;&gt;%3CmxGraphModel%3E%3Croot%3E%3CmxCell%20id%3D%220%22%2F%3E%3CmxCell%20id%3D%221%22%20parent%3D%220%22%2F%3E%3CmxCell%20id%3D%222%22%20value%3D%22*%22%20style%3D%22ellipse%3BwhiteSpace%3Dwrap%3Bhtml%3D1%3Baspect%3Dfixed%3B%22%20vertex%3D%221%22%20parent%3D%221%22%3E%3CmxGeometry%20x%3D%2270%22%20y%3D%22230%22%20width%3D%2234%22%20height%3D%2234%22%20as%3D%22geometry%22%2F%3E%3C%2FmxCell%3E%3C%2Froot%3E%3C%2FmxGraphMo&lt;/span&gt;" style="ellipse;whiteSpace=wrap;html=1;aspect=fixed;" vertex="1" parent="1">
          <mxGeometry x="430" y="280" width="34" height="34" as="geometry" />
        </mxCell>
        <mxCell id="Gl1G2USBsKFAg4OaESX5-16" value="" style="endArrow=classic;html=1;" edge="1" parent="1">
          <mxGeometry width="50" height="50" relative="1" as="geometry">
            <mxPoint x="447" y="306" as="sourcePoint" />
            <mxPoint x="446.58" y="288" as="targetPoint" />
          </mxGeometry>
        </mxCell>
        <mxCell id="Gl1G2USBsKFAg4OaESX5-22" value="*" style="ellipse;whiteSpace=wrap;html=1;aspect=fixed;" vertex="1" parent="1">
          <mxGeometry x="530" y="280" width="34" height="34" as="geometry" />
        </mxCell>
        <mxCell id="Gl1G2USBsKFAg4OaESX5-23" value="*" style="ellipse;whiteSpace=wrap;html=1;aspect=fixed;" vertex="1" parent="1">
          <mxGeometry x="740" y="280" width="34" height="34" as="geometry" />
        </mxCell>
        <mxCell id="Gl1G2USBsKFAg4OaESX5-24" value="&lt;span style=&quot;color: rgba(0 , 0 , 0 , 0) ; font-family: monospace ; font-size: 0px&quot;&gt;%3CmxGraphModel%3E%3Croot%3E%3CmxCell%20id%3D%220%22%2F%3E%3CmxCell%20id%3D%221%22%20parent%3D%220%22%2F%3E%3CmxCell%20id%3D%222%22%20value%3D%22*%22%20style%3D%22ellipse%3BwhiteSpace%3Dwrap%3Bhtml%3D1%3Baspect%3Dfixed%3B%22%20vertex%3D%221%22%20parent%3D%221%22%3E%3CmxGeometry%20x%3D%2270%22%20y%3D%22230%22%20width%3D%2234%22%20height%3D%2234%22%20as%3D%22geometry%22%2F%3E%3C%2FmxCell%3E%3C%2Froot%3E%3C%2FmxGraphMo&lt;/span&gt;" style="ellipse;whiteSpace=wrap;html=1;aspect=fixed;" vertex="1" parent="1">
          <mxGeometry x="630" y="280" width="34" height="34" as="geometry" />
        </mxCell>
        <mxCell id="Gl1G2USBsKFAg4OaESX5-25" value="" style="endArrow=classic;html=1;" edge="1" parent="1">
          <mxGeometry width="50" height="50" relative="1" as="geometry">
            <mxPoint x="647.0000000000002" y="306" as="sourcePoint" />
            <mxPoint x="646.5799999999999" y="288" as="targetPoint" />
          </mxGeometry>
        </mxCell>
        <mxCell id="Gl1G2USBsKFAg4OaESX5-27" value="*" style="ellipse;whiteSpace=wrap;html=1;aspect=fixed;" vertex="1" parent="1">
          <mxGeometry x="-22" y="340" width="34" height="34" as="geometry" />
        </mxCell>
        <mxCell id="Gl1G2USBsKFAg4OaESX5-28" value="A" style="ellipse;whiteSpace=wrap;html=1;aspect=fixed;" vertex="1" parent="1">
          <mxGeometry x="-90" y="340" width="34" height="34" as="geometry" />
        </mxCell>
        <mxCell id="Gl1G2USBsKFAg4OaESX5-29" value="2" style="ellipse;whiteSpace=wrap;html=1;aspect=fixed;" vertex="1" parent="1">
          <mxGeometry x="-56" y="410" width="34" height="34" as="geometry" />
        </mxCell>
        <mxCell id="Gl1G2USBsKFAg4OaESX5-30" value="B" style="ellipse;whiteSpace=wrap;html=1;aspect=fixed;" vertex="1" parent="1">
          <mxGeometry x="12" y="410" width="34" height="34" as="geometry" />
        </mxCell>
        <mxCell id="Gl1G2USBsKFAg4OaESX5-31" value="A" style="ellipse;whiteSpace=wrap;html=1;aspect=fixed;" vertex="1" parent="1">
          <mxGeometry x="70" y="340" width="34" height="34" as="geometry" />
        </mxCell>
        <mxCell id="Gl1G2USBsKFAg4OaESX5-32" value="D" style="ellipse;whiteSpace=wrap;html=1;aspect=fixed;" vertex="1" parent="1">
          <mxGeometry x="156" y="410" width="34" height="34" as="geometry" />
        </mxCell>
        <mxCell id="Gl1G2USBsKFAg4OaESX5-33" value="2" style="ellipse;whiteSpace=wrap;html=1;aspect=fixed;" vertex="1" parent="1">
          <mxGeometry x="90" y="410" width="34" height="34" as="geometry" />
        </mxCell>
        <mxCell id="Gl1G2USBsKFAg4OaESX5-34" value="+" style="ellipse;whiteSpace=wrap;html=1;aspect=fixed;" vertex="1" parent="1">
          <mxGeometry x="140" y="340" width="34" height="34" as="geometry" />
        </mxCell>
      </root>
    </mxGraphModel>
  </diagram>
</mxfile>
